<?xml version="1.0" standalone="no"?>
<!DOCTYPE svg PUBLIC "-//W3C//DTD SVG 20010904//EN"
 "http://www.w3.org/TR/2001/REC-SVG-20010904/DTD/svg10.dtd">
<svg version="1.0" xmlns="http://www.w3.org/2000/svg"
 width="128.000000pt" height="128.000000pt" viewBox="0 0 128.000000 128.000000"
 preserveAspectRatio="xMidYMid meet">

<g transform="translate(0.000000,128.000000) scale(0.100000,-0.100000)"
fill="#000000" stroke="none">
<path d="M502 1265 c-34 -8 -85 -24 -114 -37 l-51 -23 99 -47 99 -47 113 -165
c62 -91 114 -166 116 -166 2 0 48 80 102 178 l99 177 3 -202 c2 -181 4 -202
20 -207 9 -2 52 -12 95 -21 l79 -17 -5 -176 c-2 -115 -9 -193 -18 -222 l-15
-44 -174 257 c-96 141 -178 257 -181 257 -4 0 -52 -82 -108 -183 l-101 -183
-1 -90 0 -89 -92 -73 -92 -74 -3 396 c-2 379 -3 396 -21 396 -38 0 -43 22 -39
179 2 83 1 151 -1 151 -2 0 -25 -16 -52 -36 -157 -115 -259 -318 -259 -514 0
-349 291 -640 640 -640 349 0 640 291 640 640 0 405 -381 711 -778 625z"/>
</g>
</svg>
